# xmcd
# 
# Track frame offsets:
#     150
#     16350
#     35452
#     54157
#     73817
#     88782
#     106962
#     121455
#     142790
#     159750
# 
# Disc length: 2296
# 
# Revision: 4
# Processed by: cddbd v1.5.2PL0 Copyright (c) Steve Scherf et al.
# Submitted via: BonkEnc v1.0.5
# 
DISCID=7808f60a
DTITLE=Lowell Fulson - It's a Good Day
DYEAR=1988
DGENRE=Blues
TTITLE0=Thanks a Lot
TTITLE1=It's a Good Day
TTITLE2=Ten More Shows
TTITLE3=Your Love for Me is Gone
TTITLE4=I'm Tough
TTITLE5=Keep That Smile
TTITLE6=Slow Down, Baby
TTITLE7=Blues and My Guitar
TTITLE8=One More Blues
TTITLE9=Push On
EXTD=Rounder CD 2088\n\nLowell Fulson:  vocal, guitar\nThe Black Top Rhythm Section:  \n   Ron Levy:  piano, organ, synthesizers, leader\n   Lloyd Lambert:  acoustic bass\n   Eugene Ross:  guitar\n   David Lee, Jr.:  drums\nAlvin "Red" Tyler:  tenor saxop
EXTD=hone\nEarl Turbinton:  alto saxophone\nWillie Tee:  synthesizer YEAR: 1988
EXTT0=
EXTT1=
EXTT2=
EXTT3=
EXTT4=
EXTT5=
EXTT6=
EXTT7=
EXTT8=
EXTT9=
PLAYORDER=
